<mxfile host="app.diagrams.net" modified="2020-04-28T13:45:50.539Z" agent="5.0 (X11)" etag="Ldcuq8XpgAcw5B8vr_PI" version="12.9.13" type="github">
  <diagram id="IQpS7d1PLVy1vGDSn6vQ" name="Page-1">
    <mxGraphModel dx="1357" dy="807" grid="0" gridSize="10" guides="1" tooltips="1" connect="1" arrows="1" fold="1" page="0" pageScale="1" pageWidth="850" pageHeight="1100" math="0" shadow="0">
      <root>
        <mxCell id="0" />
        <mxCell id="1" parent="0" />
        <mxCell id="_ROd4VlNrvX8ry7WKHQZ-1" value="&lt;font style=&quot;font-size: 24px&quot;&gt;3&lt;/font&gt;" style="ellipse;whiteSpace=wrap;html=1;aspect=fixed;fontSize=24;" parent="1" vertex="1">
          <mxGeometry x="180" y="4" width="50" height="50" as="geometry" />
        </mxCell>
        <mxCell id="_ROd4VlNrvX8ry7WKHQZ-2" value="8" style="ellipse;whiteSpace=wrap;html=1;aspect=fixed;fontSize=24;" parent="1" vertex="1">
          <mxGeometry x="70" y="84" width="50" height="50" as="geometry" />
        </mxCell>
        <mxCell id="_ROd4VlNrvX8ry7WKHQZ-3" value="10" style="ellipse;whiteSpace=wrap;html=1;aspect=fixed;fontSize=24;" parent="1" vertex="1">
          <mxGeometry x="280" y="84" width="50" height="50" as="geometry" />
        </mxCell>
        <mxCell id="_ROd4VlNrvX8ry7WKHQZ-4" value="16" style="ellipse;whiteSpace=wrap;html=1;aspect=fixed;fontSize=24;" parent="1" vertex="1">
          <mxGeometry x="10" y="174" width="50" height="50" as="geometry" />
        </mxCell>
        <mxCell id="_ROd4VlNrvX8ry7WKHQZ-5" value="33" style="ellipse;whiteSpace=wrap;html=1;aspect=fixed;fontSize=24;" parent="1" vertex="1">
          <mxGeometry x="120" y="174" width="50" height="50" as="geometry" />
        </mxCell>
        <mxCell id="_ROd4VlNrvX8ry7WKHQZ-6" value="54" style="ellipse;whiteSpace=wrap;html=1;aspect=fixed;fontSize=24;" parent="1" vertex="1">
          <mxGeometry x="230" y="174" width="50" height="50" as="geometry" />
        </mxCell>
        <mxCell id="_ROd4VlNrvX8ry7WKHQZ-9" value="" style="endArrow=none;html=1;entryX=0;entryY=1;entryDx=0;entryDy=0;exitX=1;exitY=0;exitDx=0;exitDy=0;fontSize=24;" parent="1" source="_ROd4VlNrvX8ry7WKHQZ-2" target="_ROd4VlNrvX8ry7WKHQZ-1" edge="1">
          <mxGeometry width="50" height="50" relative="1" as="geometry">
            <mxPoint x="180" y="384" as="sourcePoint" />
            <mxPoint x="230" y="334" as="targetPoint" />
          </mxGeometry>
        </mxCell>
        <mxCell id="_ROd4VlNrvX8ry7WKHQZ-10" value="" style="endArrow=none;html=1;entryX=1;entryY=1;entryDx=0;entryDy=0;exitX=0;exitY=0;exitDx=0;exitDy=0;fontSize=24;" parent="1" source="_ROd4VlNrvX8ry7WKHQZ-3" target="_ROd4VlNrvX8ry7WKHQZ-1" edge="1">
          <mxGeometry width="50" height="50" relative="1" as="geometry">
            <mxPoint x="180" y="384" as="sourcePoint" />
            <mxPoint x="230" y="334" as="targetPoint" />
          </mxGeometry>
        </mxCell>
        <mxCell id="_ROd4VlNrvX8ry7WKHQZ-11" value="" style="endArrow=none;html=1;entryX=0;entryY=1;entryDx=0;entryDy=0;exitX=1;exitY=0;exitDx=0;exitDy=0;fontSize=24;" parent="1" source="_ROd4VlNrvX8ry7WKHQZ-4" target="_ROd4VlNrvX8ry7WKHQZ-2" edge="1">
          <mxGeometry width="50" height="50" relative="1" as="geometry">
            <mxPoint x="180" y="384" as="sourcePoint" />
            <mxPoint x="230" y="334" as="targetPoint" />
          </mxGeometry>
        </mxCell>
        <mxCell id="_ROd4VlNrvX8ry7WKHQZ-13" value="" style="endArrow=none;html=1;entryX=1;entryY=1;entryDx=0;entryDy=0;fontSize=24;" parent="1" source="_ROd4VlNrvX8ry7WKHQZ-5" target="_ROd4VlNrvX8ry7WKHQZ-2" edge="1">
          <mxGeometry width="50" height="50" relative="1" as="geometry">
            <mxPoint x="180" y="384" as="sourcePoint" />
            <mxPoint x="230" y="334" as="targetPoint" />
          </mxGeometry>
        </mxCell>
        <mxCell id="_ROd4VlNrvX8ry7WKHQZ-15" value="" style="endArrow=none;html=1;entryX=0;entryY=1;entryDx=0;entryDy=0;exitX=1;exitY=0;exitDx=0;exitDy=0;fontSize=24;" parent="1" source="_ROd4VlNrvX8ry7WKHQZ-6" target="_ROd4VlNrvX8ry7WKHQZ-3" edge="1">
          <mxGeometry width="50" height="50" relative="1" as="geometry">
            <mxPoint x="180" y="384" as="sourcePoint" />
            <mxPoint x="230" y="334" as="targetPoint" />
          </mxGeometry>
        </mxCell>
        <mxCell id="_ROd4VlNrvX8ry7WKHQZ-67" value="" style="group" parent="1" vertex="1" connectable="0">
          <mxGeometry x="23" y="283" width="330" height="60" as="geometry" />
        </mxCell>
        <mxCell id="_ROd4VlNrvX8ry7WKHQZ-31" value="5" style="rounded=0;whiteSpace=wrap;html=1;fontSize=24;" parent="_ROd4VlNrvX8ry7WKHQZ-67" vertex="1">
          <mxGeometry x="55" width="55" height="60" as="geometry" />
        </mxCell>
        <mxCell id="_ROd4VlNrvX8ry7WKHQZ-32" value="13" style="rounded=0;whiteSpace=wrap;html=1;fontSize=24;" parent="_ROd4VlNrvX8ry7WKHQZ-67" vertex="1">
          <mxGeometry width="55" height="60" as="geometry" />
        </mxCell>
        <mxCell id="_ROd4VlNrvX8ry7WKHQZ-33" value="8" style="rounded=0;whiteSpace=wrap;html=1;fontSize=24;" parent="_ROd4VlNrvX8ry7WKHQZ-67" vertex="1">
          <mxGeometry x="110" width="55" height="60" as="geometry" />
        </mxCell>
        <mxCell id="_ROd4VlNrvX8ry7WKHQZ-34" value="22" style="rounded=0;whiteSpace=wrap;html=1;fontSize=24;" parent="_ROd4VlNrvX8ry7WKHQZ-67" vertex="1">
          <mxGeometry x="165" width="55" height="60" as="geometry" />
        </mxCell>
        <mxCell id="_ROd4VlNrvX8ry7WKHQZ-35" value="3" style="rounded=0;whiteSpace=wrap;html=1;fontSize=24;" parent="_ROd4VlNrvX8ry7WKHQZ-67" vertex="1">
          <mxGeometry x="220" width="55" height="60" as="geometry" />
        </mxCell>
        <mxCell id="_ROd4VlNrvX8ry7WKHQZ-36" value="15" style="rounded=0;whiteSpace=wrap;html=1;fontSize=24;" parent="_ROd4VlNrvX8ry7WKHQZ-67" vertex="1">
          <mxGeometry x="275" width="55" height="60" as="geometry" />
        </mxCell>
        <mxCell id="_ROd4VlNrvX8ry7WKHQZ-68" value="" style="group" parent="1" vertex="1" connectable="0">
          <mxGeometry x="23" y="386" width="330" height="60" as="geometry" />
        </mxCell>
        <mxCell id="_ROd4VlNrvX8ry7WKHQZ-37" value="&lt;font color=&quot;#CC0000&quot;&gt;&lt;b&gt;5&lt;/b&gt;&lt;/font&gt;" style="rounded=0;whiteSpace=wrap;html=1;fontSize=24;" parent="_ROd4VlNrvX8ry7WKHQZ-68" vertex="1">
          <mxGeometry x="55" width="55" height="60" as="geometry" />
        </mxCell>
        <mxCell id="_ROd4VlNrvX8ry7WKHQZ-38" value="&lt;font color=&quot;#CC0000&quot;&gt;&lt;b&gt;13&lt;/b&gt;&lt;/font&gt;" style="rounded=0;whiteSpace=wrap;html=1;fontSize=24;" parent="_ROd4VlNrvX8ry7WKHQZ-68" vertex="1">
          <mxGeometry width="55" height="60" as="geometry" />
        </mxCell>
        <mxCell id="_ROd4VlNrvX8ry7WKHQZ-39" value="8" style="rounded=0;whiteSpace=wrap;html=1;fontSize=24;" parent="_ROd4VlNrvX8ry7WKHQZ-68" vertex="1">
          <mxGeometry x="110" width="55" height="60" as="geometry" />
        </mxCell>
        <mxCell id="_ROd4VlNrvX8ry7WKHQZ-40" value="22" style="rounded=0;whiteSpace=wrap;html=1;fontSize=24;" parent="_ROd4VlNrvX8ry7WKHQZ-68" vertex="1">
          <mxGeometry x="165" width="55" height="60" as="geometry" />
        </mxCell>
        <mxCell id="_ROd4VlNrvX8ry7WKHQZ-41" value="3" style="rounded=0;whiteSpace=wrap;html=1;fontSize=24;" parent="_ROd4VlNrvX8ry7WKHQZ-68" vertex="1">
          <mxGeometry x="220" width="55" height="60" as="geometry" />
        </mxCell>
        <mxCell id="_ROd4VlNrvX8ry7WKHQZ-42" value="15" style="rounded=0;whiteSpace=wrap;html=1;fontSize=24;" parent="_ROd4VlNrvX8ry7WKHQZ-68" vertex="1">
          <mxGeometry x="275" width="55" height="60" as="geometry" />
        </mxCell>
        <mxCell id="_ROd4VlNrvX8ry7WKHQZ-69" value="" style="group" parent="1" vertex="1" connectable="0">
          <mxGeometry x="23" y="494" width="330" height="60" as="geometry" />
        </mxCell>
        <mxCell id="_ROd4VlNrvX8ry7WKHQZ-43" value="&lt;b&gt;&lt;font color=&quot;#CC0000&quot;&gt;13&lt;/font&gt;&lt;/b&gt;" style="rounded=0;whiteSpace=wrap;html=1;fontSize=24;" parent="_ROd4VlNrvX8ry7WKHQZ-69" vertex="1">
          <mxGeometry x="55" width="55" height="60" as="geometry" />
        </mxCell>
        <mxCell id="_ROd4VlNrvX8ry7WKHQZ-44" value="&lt;b&gt;&lt;font color=&quot;#CC0000&quot;&gt;5&lt;/font&gt;&lt;/b&gt;" style="rounded=0;whiteSpace=wrap;html=1;fontSize=24;" parent="_ROd4VlNrvX8ry7WKHQZ-69" vertex="1">
          <mxGeometry width="55" height="60" as="geometry" />
        </mxCell>
        <mxCell id="_ROd4VlNrvX8ry7WKHQZ-45" value="8" style="rounded=0;whiteSpace=wrap;html=1;fontSize=24;" parent="_ROd4VlNrvX8ry7WKHQZ-69" vertex="1">
          <mxGeometry x="110" width="55" height="60" as="geometry" />
        </mxCell>
        <mxCell id="_ROd4VlNrvX8ry7WKHQZ-46" value="22" style="rounded=0;whiteSpace=wrap;html=1;fontSize=24;" parent="_ROd4VlNrvX8ry7WKHQZ-69" vertex="1">
          <mxGeometry x="165" width="55" height="60" as="geometry" />
        </mxCell>
        <mxCell id="_ROd4VlNrvX8ry7WKHQZ-47" value="3" style="rounded=0;whiteSpace=wrap;html=1;fontSize=24;" parent="_ROd4VlNrvX8ry7WKHQZ-69" vertex="1">
          <mxGeometry x="220" width="55" height="60" as="geometry" />
        </mxCell>
        <mxCell id="_ROd4VlNrvX8ry7WKHQZ-48" value="15" style="rounded=0;whiteSpace=wrap;html=1;fontSize=24;" parent="_ROd4VlNrvX8ry7WKHQZ-69" vertex="1">
          <mxGeometry x="275" width="55" height="60" as="geometry" />
        </mxCell>
        <mxCell id="_ROd4VlNrvX8ry7WKHQZ-70" value="" style="group" parent="1" vertex="1" connectable="0">
          <mxGeometry x="23" y="605" width="330" height="60" as="geometry" />
        </mxCell>
        <mxCell id="_ROd4VlNrvX8ry7WKHQZ-49" value="&lt;b&gt;&lt;font color=&quot;#CC0000&quot;&gt;13&lt;/font&gt;&lt;/b&gt;" style="rounded=0;whiteSpace=wrap;html=1;fontSize=24;" parent="_ROd4VlNrvX8ry7WKHQZ-70" vertex="1">
          <mxGeometry x="55" width="55" height="60" as="geometry" />
        </mxCell>
        <mxCell id="_ROd4VlNrvX8ry7WKHQZ-50" value="5" style="rounded=0;whiteSpace=wrap;html=1;fontSize=24;" parent="_ROd4VlNrvX8ry7WKHQZ-70" vertex="1">
          <mxGeometry width="55" height="60" as="geometry" />
        </mxCell>
        <mxCell id="_ROd4VlNrvX8ry7WKHQZ-51" value="&lt;b&gt;&lt;font color=&quot;#CC0000&quot;&gt;8&lt;/font&gt;&lt;/b&gt;" style="rounded=0;whiteSpace=wrap;html=1;fontSize=24;" parent="_ROd4VlNrvX8ry7WKHQZ-70" vertex="1">
          <mxGeometry x="110" width="55" height="60" as="geometry" />
        </mxCell>
        <mxCell id="_ROd4VlNrvX8ry7WKHQZ-52" value="22" style="rounded=0;whiteSpace=wrap;html=1;fontSize=24;" parent="_ROd4VlNrvX8ry7WKHQZ-70" vertex="1">
          <mxGeometry x="165" width="55" height="60" as="geometry" />
        </mxCell>
        <mxCell id="_ROd4VlNrvX8ry7WKHQZ-53" value="3" style="rounded=0;whiteSpace=wrap;html=1;fontSize=24;" parent="_ROd4VlNrvX8ry7WKHQZ-70" vertex="1">
          <mxGeometry x="220" width="55" height="60" as="geometry" />
        </mxCell>
        <mxCell id="_ROd4VlNrvX8ry7WKHQZ-54" value="15" style="rounded=0;whiteSpace=wrap;html=1;fontSize=24;" parent="_ROd4VlNrvX8ry7WKHQZ-70" vertex="1">
          <mxGeometry x="275" width="55" height="60" as="geometry" />
        </mxCell>
        <mxCell id="_ROd4VlNrvX8ry7WKHQZ-71" value="" style="group" parent="1" vertex="1" connectable="0">
          <mxGeometry x="23" y="711" width="330" height="60" as="geometry" />
        </mxCell>
        <mxCell id="_ROd4VlNrvX8ry7WKHQZ-55" value="&lt;b&gt;&lt;font color=&quot;#CC0000&quot;&gt;8&lt;/font&gt;&lt;/b&gt;" style="rounded=0;whiteSpace=wrap;html=1;fontSize=24;" parent="_ROd4VlNrvX8ry7WKHQZ-71" vertex="1">
          <mxGeometry x="55" width="55" height="60" as="geometry" />
        </mxCell>
        <mxCell id="_ROd4VlNrvX8ry7WKHQZ-56" value="5" style="rounded=0;whiteSpace=wrap;html=1;fontSize=24;" parent="_ROd4VlNrvX8ry7WKHQZ-71" vertex="1">
          <mxGeometry width="55" height="60" as="geometry" />
        </mxCell>
        <mxCell id="_ROd4VlNrvX8ry7WKHQZ-57" value="&lt;b&gt;&lt;font color=&quot;#CC0000&quot;&gt;13&lt;/font&gt;&lt;/b&gt;" style="rounded=0;whiteSpace=wrap;html=1;fontSize=24;" parent="_ROd4VlNrvX8ry7WKHQZ-71" vertex="1">
          <mxGeometry x="110" width="55" height="60" as="geometry" />
        </mxCell>
        <mxCell id="_ROd4VlNrvX8ry7WKHQZ-58" value="22" style="rounded=0;whiteSpace=wrap;html=1;fontSize=24;" parent="_ROd4VlNrvX8ry7WKHQZ-71" vertex="1">
          <mxGeometry x="165" width="55" height="60" as="geometry" />
        </mxCell>
        <mxCell id="_ROd4VlNrvX8ry7WKHQZ-59" value="3" style="rounded=0;whiteSpace=wrap;html=1;fontSize=24;" parent="_ROd4VlNrvX8ry7WKHQZ-71" vertex="1">
          <mxGeometry x="220" width="55" height="60" as="geometry" />
        </mxCell>
        <mxCell id="_ROd4VlNrvX8ry7WKHQZ-60" value="15" style="rounded=0;whiteSpace=wrap;html=1;fontSize=24;" parent="_ROd4VlNrvX8ry7WKHQZ-71" vertex="1">
          <mxGeometry x="275" width="55" height="60" as="geometry" />
        </mxCell>
        <mxCell id="_ROd4VlNrvX8ry7WKHQZ-72" value="" style="group" parent="1" vertex="1" connectable="0">
          <mxGeometry x="23" y="819" width="330" height="60" as="geometry" />
        </mxCell>
        <mxCell id="_ROd4VlNrvX8ry7WKHQZ-61" value="8" style="rounded=0;whiteSpace=wrap;html=1;fontSize=24;" parent="_ROd4VlNrvX8ry7WKHQZ-72" vertex="1">
          <mxGeometry x="55" width="55" height="60" as="geometry" />
        </mxCell>
        <mxCell id="_ROd4VlNrvX8ry7WKHQZ-62" value="5" style="rounded=0;whiteSpace=wrap;html=1;fontSize=24;" parent="_ROd4VlNrvX8ry7WKHQZ-72" vertex="1">
          <mxGeometry width="55" height="60" as="geometry" />
        </mxCell>
        <mxCell id="_ROd4VlNrvX8ry7WKHQZ-63" value="13" style="rounded=0;whiteSpace=wrap;html=1;fontSize=24;" parent="_ROd4VlNrvX8ry7WKHQZ-72" vertex="1">
          <mxGeometry x="110" width="55" height="60" as="geometry" />
        </mxCell>
        <mxCell id="_ROd4VlNrvX8ry7WKHQZ-64" value="3" style="rounded=0;whiteSpace=wrap;html=1;fontSize=24;" parent="_ROd4VlNrvX8ry7WKHQZ-72" vertex="1">
          <mxGeometry x="165" width="55" height="60" as="geometry" />
        </mxCell>
        <mxCell id="_ROd4VlNrvX8ry7WKHQZ-65" value="15" style="rounded=0;whiteSpace=wrap;html=1;fontSize=24;" parent="_ROd4VlNrvX8ry7WKHQZ-72" vertex="1">
          <mxGeometry x="220" width="55" height="60" as="geometry" />
        </mxCell>
        <mxCell id="_ROd4VlNrvX8ry7WKHQZ-66" value="22" style="rounded=0;whiteSpace=wrap;html=1;fontSize=24;fillColor=#f8cecc;strokeColor=#b85450;" parent="_ROd4VlNrvX8ry7WKHQZ-72" vertex="1">
          <mxGeometry x="275" width="55" height="60" as="geometry" />
        </mxCell>
        <mxCell id="alqseJsik2M_g6vykvSD-1" value="" style="group" vertex="1" connectable="0" parent="1">
          <mxGeometry x="25" y="922" width="330" height="60" as="geometry" />
        </mxCell>
        <mxCell id="alqseJsik2M_g6vykvSD-2" value="8" style="rounded=0;whiteSpace=wrap;html=1;fontSize=24;" vertex="1" parent="alqseJsik2M_g6vykvSD-1">
          <mxGeometry x="55" width="55" height="60" as="geometry" />
        </mxCell>
        <mxCell id="alqseJsik2M_g6vykvSD-3" value="5" style="rounded=0;whiteSpace=wrap;html=1;fontSize=24;" vertex="1" parent="alqseJsik2M_g6vykvSD-1">
          <mxGeometry width="55" height="60" as="geometry" />
        </mxCell>
        <mxCell id="alqseJsik2M_g6vykvSD-4" value="3" style="rounded=0;whiteSpace=wrap;html=1;fontSize=24;" vertex="1" parent="alqseJsik2M_g6vykvSD-1">
          <mxGeometry x="110" width="55" height="60" as="geometry" />
        </mxCell>
        <mxCell id="alqseJsik2M_g6vykvSD-5" value="13" style="rounded=0;whiteSpace=wrap;html=1;fontSize=24;" vertex="1" parent="alqseJsik2M_g6vykvSD-1">
          <mxGeometry x="165" width="55" height="60" as="geometry" />
        </mxCell>
        <mxCell id="alqseJsik2M_g6vykvSD-6" value="15" style="rounded=0;whiteSpace=wrap;html=1;fontSize=24;fillColor=#f8cecc;strokeColor=#b85450;" vertex="1" parent="alqseJsik2M_g6vykvSD-1">
          <mxGeometry x="220" width="55" height="60" as="geometry" />
        </mxCell>
        <mxCell id="alqseJsik2M_g6vykvSD-7" value="22" style="rounded=0;whiteSpace=wrap;html=1;fontSize=24;fillColor=#f8cecc;strokeColor=#b85450;" vertex="1" parent="alqseJsik2M_g6vykvSD-1">
          <mxGeometry x="275" width="55" height="60" as="geometry" />
        </mxCell>
        <mxCell id="alqseJsik2M_g6vykvSD-8" value="" style="group;fillColor=#f8cecc;strokeColor=#b85450;" vertex="1" connectable="0" parent="1">
          <mxGeometry x="27" y="1012" width="330" height="60" as="geometry" />
        </mxCell>
        <mxCell id="alqseJsik2M_g6vykvSD-9" value="5" style="rounded=0;whiteSpace=wrap;html=1;fontSize=24;fillColor=#f8cecc;strokeColor=#b85450;" vertex="1" parent="alqseJsik2M_g6vykvSD-8">
          <mxGeometry x="55" width="55" height="60" as="geometry" />
        </mxCell>
        <mxCell id="alqseJsik2M_g6vykvSD-10" value="3" style="rounded=0;whiteSpace=wrap;html=1;fontSize=24;fillColor=#f8cecc;strokeColor=#b85450;" vertex="1" parent="alqseJsik2M_g6vykvSD-8">
          <mxGeometry width="55" height="60" as="geometry" />
        </mxCell>
        <mxCell id="alqseJsik2M_g6vykvSD-11" value="8" style="rounded=0;whiteSpace=wrap;html=1;fontSize=24;fillColor=#f8cecc;strokeColor=#b85450;" vertex="1" parent="alqseJsik2M_g6vykvSD-8">
          <mxGeometry x="110" width="55" height="60" as="geometry" />
        </mxCell>
        <mxCell id="alqseJsik2M_g6vykvSD-12" value="13" style="rounded=0;whiteSpace=wrap;html=1;fontSize=24;fillColor=#f8cecc;strokeColor=#b85450;" vertex="1" parent="alqseJsik2M_g6vykvSD-8">
          <mxGeometry x="165" width="55" height="60" as="geometry" />
        </mxCell>
        <mxCell id="alqseJsik2M_g6vykvSD-13" value="15" style="rounded=0;whiteSpace=wrap;html=1;fontSize=24;fillColor=#f8cecc;strokeColor=#b85450;" vertex="1" parent="alqseJsik2M_g6vykvSD-8">
          <mxGeometry x="220" width="55" height="60" as="geometry" />
        </mxCell>
        <mxCell id="alqseJsik2M_g6vykvSD-14" value="22" style="rounded=0;whiteSpace=wrap;html=1;fontSize=24;fillColor=#f8cecc;strokeColor=#b85450;" vertex="1" parent="alqseJsik2M_g6vykvSD-8">
          <mxGeometry x="275" width="55" height="60" as="geometry" />
        </mxCell>
        <mxCell id="alqseJsik2M_g6vykvSD-15" value="" style="group;" vertex="1" connectable="0" parent="1">
          <mxGeometry x="577" y="56" width="330" height="60" as="geometry" />
        </mxCell>
        <mxCell id="alqseJsik2M_g6vykvSD-16" value="5" style="rounded=0;whiteSpace=wrap;html=1;fontSize=24;" vertex="1" parent="alqseJsik2M_g6vykvSD-15">
          <mxGeometry x="55" width="55" height="60" as="geometry" />
        </mxCell>
        <mxCell id="alqseJsik2M_g6vykvSD-17" value="13" style="rounded=0;whiteSpace=wrap;html=1;fontSize=24;" vertex="1" parent="alqseJsik2M_g6vykvSD-15">
          <mxGeometry width="55" height="60" as="geometry" />
        </mxCell>
        <mxCell id="alqseJsik2M_g6vykvSD-18" value="8" style="rounded=0;whiteSpace=wrap;html=1;fontSize=24;" vertex="1" parent="alqseJsik2M_g6vykvSD-15">
          <mxGeometry x="110" width="55" height="60" as="geometry" />
        </mxCell>
        <mxCell id="alqseJsik2M_g6vykvSD-19" value="22" style="rounded=0;whiteSpace=wrap;html=1;fontSize=24;" vertex="1" parent="alqseJsik2M_g6vykvSD-15">
          <mxGeometry x="165" width="55" height="60" as="geometry" />
        </mxCell>
        <mxCell id="alqseJsik2M_g6vykvSD-20" value="3" style="rounded=0;whiteSpace=wrap;html=1;fontSize=24;" vertex="1" parent="alqseJsik2M_g6vykvSD-15">
          <mxGeometry x="220" width="55" height="60" as="geometry" />
        </mxCell>
        <mxCell id="alqseJsik2M_g6vykvSD-21" value="15" style="rounded=0;whiteSpace=wrap;html=1;fontSize=24;" vertex="1" parent="alqseJsik2M_g6vykvSD-15">
          <mxGeometry x="275" width="55" height="60" as="geometry" />
        </mxCell>
        <mxCell id="alqseJsik2M_g6vykvSD-22" value="5" style="rounded=0;whiteSpace=wrap;html=1;fontSize=24;" vertex="1" parent="1">
          <mxGeometry x="577" y="166" width="55" height="60" as="geometry" />
        </mxCell>
        <mxCell id="alqseJsik2M_g6vykvSD-23" value="13" style="rounded=0;whiteSpace=wrap;html=1;fontSize=24;" vertex="1" parent="1">
          <mxGeometry x="522" y="166" width="55" height="60" as="geometry" />
        </mxCell>
        <mxCell id="alqseJsik2M_g6vykvSD-24" value="8" style="rounded=0;whiteSpace=wrap;html=1;fontSize=24;" vertex="1" parent="1">
          <mxGeometry x="632" y="166" width="55" height="60" as="geometry" />
        </mxCell>
        <mxCell id="alqseJsik2M_g6vykvSD-25" value="3" style="rounded=0;whiteSpace=wrap;html=1;fontSize=24;" vertex="1" parent="1">
          <mxGeometry x="870" y="166" width="55" height="60" as="geometry" />
        </mxCell>
        <mxCell id="alqseJsik2M_g6vykvSD-26" value="22" style="rounded=0;whiteSpace=wrap;html=1;fontSize=24;" vertex="1" parent="1">
          <mxGeometry x="815" y="166" width="55" height="60" as="geometry" />
        </mxCell>
        <mxCell id="alqseJsik2M_g6vykvSD-27" value="15" style="rounded=0;whiteSpace=wrap;html=1;fontSize=24;" vertex="1" parent="1">
          <mxGeometry x="925" y="166" width="55" height="60" as="geometry" />
        </mxCell>
        <mxCell id="alqseJsik2M_g6vykvSD-29" value="13" style="rounded=0;whiteSpace=wrap;html=1;fontSize=24;" vertex="1" parent="1">
          <mxGeometry x="467" y="276" width="55" height="60" as="geometry" />
        </mxCell>
        <mxCell id="alqseJsik2M_g6vykvSD-31" value="5" style="rounded=0;whiteSpace=wrap;html=1;fontSize=24;" vertex="1" parent="1">
          <mxGeometry x="610" y="276" width="55" height="60" as="geometry" />
        </mxCell>
        <mxCell id="alqseJsik2M_g6vykvSD-32" value="8" style="rounded=0;whiteSpace=wrap;html=1;fontSize=24;" vertex="1" parent="1">
          <mxGeometry x="665" y="276" width="55" height="60" as="geometry" />
        </mxCell>
        <mxCell id="alqseJsik2M_g6vykvSD-33" value="22" style="rounded=0;whiteSpace=wrap;html=1;fontSize=24;" vertex="1" parent="1">
          <mxGeometry x="790" y="276" width="55" height="60" as="geometry" />
        </mxCell>
        <mxCell id="alqseJsik2M_g6vykvSD-34" value="3" style="rounded=0;whiteSpace=wrap;html=1;fontSize=24;" vertex="1" parent="1">
          <mxGeometry x="915" y="272" width="55" height="60" as="geometry" />
        </mxCell>
        <mxCell id="alqseJsik2M_g6vykvSD-35" value="15" style="rounded=0;whiteSpace=wrap;html=1;fontSize=24;" vertex="1" parent="1">
          <mxGeometry x="970" y="272" width="55" height="60" as="geometry" />
        </mxCell>
        <mxCell id="alqseJsik2M_g6vykvSD-37" value="5" style="rounded=0;whiteSpace=wrap;html=1;fontSize=24;" vertex="1" parent="1">
          <mxGeometry x="588" y="386" width="55" height="60" as="geometry" />
        </mxCell>
        <mxCell id="alqseJsik2M_g6vykvSD-38" value="8" style="rounded=0;whiteSpace=wrap;html=1;fontSize=24;" vertex="1" parent="1">
          <mxGeometry x="685" y="386" width="55" height="60" as="geometry" />
        </mxCell>
        <mxCell id="alqseJsik2M_g6vykvSD-39" value="13" style="rounded=0;whiteSpace=wrap;html=1;fontSize=24;" vertex="1" parent="1">
          <mxGeometry x="467" y="386" width="55" height="60" as="geometry" />
        </mxCell>
        <mxCell id="alqseJsik2M_g6vykvSD-41" value="22" style="rounded=0;whiteSpace=wrap;html=1;fontSize=24;" vertex="1" parent="1">
          <mxGeometry x="790" y="386" width="55" height="60" as="geometry" />
        </mxCell>
        <mxCell id="alqseJsik2M_g6vykvSD-43" value="3" style="rounded=0;whiteSpace=wrap;html=1;fontSize=24;" vertex="1" parent="1">
          <mxGeometry x="894" y="386" width="55" height="60" as="geometry" />
        </mxCell>
        <mxCell id="alqseJsik2M_g6vykvSD-44" value="15" style="rounded=0;whiteSpace=wrap;html=1;fontSize=24;" vertex="1" parent="1">
          <mxGeometry x="998" y="383" width="55" height="60" as="geometry" />
        </mxCell>
        <mxCell id="alqseJsik2M_g6vykvSD-45" value="13" style="rounded=0;whiteSpace=wrap;html=1;fontSize=24;" vertex="1" parent="1">
          <mxGeometry x="467" y="496" width="55" height="60" as="geometry" />
        </mxCell>
        <mxCell id="alqseJsik2M_g6vykvSD-46" value="5" style="rounded=0;whiteSpace=wrap;html=1;fontSize=24;" vertex="1" parent="1">
          <mxGeometry x="610" y="494" width="55" height="60" as="geometry" />
        </mxCell>
        <mxCell id="alqseJsik2M_g6vykvSD-47" value="8" style="rounded=0;whiteSpace=wrap;html=1;fontSize=24;" vertex="1" parent="1">
          <mxGeometry x="665" y="494" width="55" height="60" as="geometry" />
        </mxCell>
        <mxCell id="alqseJsik2M_g6vykvSD-48" value="22" style="rounded=0;whiteSpace=wrap;html=1;fontSize=24;" vertex="1" parent="1">
          <mxGeometry x="792" y="496" width="55" height="60" as="geometry" />
        </mxCell>
        <mxCell id="alqseJsik2M_g6vykvSD-49" value="3" style="rounded=0;whiteSpace=wrap;html=1;fontSize=24;" vertex="1" parent="1">
          <mxGeometry x="919" y="494" width="55" height="60" as="geometry" />
        </mxCell>
        <mxCell id="alqseJsik2M_g6vykvSD-50" value="15" style="rounded=0;whiteSpace=wrap;html=1;fontSize=24;" vertex="1" parent="1">
          <mxGeometry x="974" y="494" width="55" height="60" as="geometry" />
        </mxCell>
        <mxCell id="alqseJsik2M_g6vykvSD-51" value="8" style="rounded=0;whiteSpace=wrap;html=1;fontSize=24;" vertex="1" parent="1">
          <mxGeometry x="555" y="607" width="55" height="60" as="geometry" />
        </mxCell>
        <mxCell id="alqseJsik2M_g6vykvSD-52" value="5" style="rounded=0;whiteSpace=wrap;html=1;fontSize=24;" vertex="1" parent="1">
          <mxGeometry x="500" y="607" width="55" height="60" as="geometry" />
        </mxCell>
        <mxCell id="alqseJsik2M_g6vykvSD-53" value="13" style="rounded=0;whiteSpace=wrap;html=1;fontSize=24;" vertex="1" parent="1">
          <mxGeometry x="610" y="607" width="55" height="60" as="geometry" />
        </mxCell>
        <mxCell id="alqseJsik2M_g6vykvSD-54" value="15" style="rounded=0;whiteSpace=wrap;html=1;fontSize=24;" vertex="1" parent="1">
          <mxGeometry x="870" y="605" width="55" height="60" as="geometry" />
        </mxCell>
        <mxCell id="alqseJsik2M_g6vykvSD-55" value="3" style="rounded=0;whiteSpace=wrap;html=1;fontSize=24;" vertex="1" parent="1">
          <mxGeometry x="815" y="605" width="55" height="60" as="geometry" />
        </mxCell>
        <mxCell id="alqseJsik2M_g6vykvSD-56" value="22" style="rounded=0;whiteSpace=wrap;html=1;fontSize=24;" vertex="1" parent="1">
          <mxGeometry x="925" y="605" width="55" height="60" as="geometry" />
        </mxCell>
        <mxCell id="alqseJsik2M_g6vykvSD-57" value="" style="group;" vertex="1" connectable="0" parent="1">
          <mxGeometry x="576" y="726" width="330" height="60" as="geometry" />
        </mxCell>
        <mxCell id="alqseJsik2M_g6vykvSD-58" value="5" style="rounded=0;whiteSpace=wrap;html=1;fontSize=24;" vertex="1" parent="alqseJsik2M_g6vykvSD-57">
          <mxGeometry x="55" width="55" height="60" as="geometry" />
        </mxCell>
        <mxCell id="alqseJsik2M_g6vykvSD-59" value="3" style="rounded=0;whiteSpace=wrap;html=1;fontSize=24;" vertex="1" parent="alqseJsik2M_g6vykvSD-57">
          <mxGeometry width="55" height="60" as="geometry" />
        </mxCell>
        <mxCell id="alqseJsik2M_g6vykvSD-60" value="8" style="rounded=0;whiteSpace=wrap;html=1;fontSize=24;" vertex="1" parent="alqseJsik2M_g6vykvSD-57">
          <mxGeometry x="110" width="55" height="60" as="geometry" />
        </mxCell>
        <mxCell id="alqseJsik2M_g6vykvSD-61" value="13" style="rounded=0;whiteSpace=wrap;html=1;fontSize=24;" vertex="1" parent="alqseJsik2M_g6vykvSD-57">
          <mxGeometry x="165" width="55" height="60" as="geometry" />
        </mxCell>
        <mxCell id="alqseJsik2M_g6vykvSD-62" value="15" style="rounded=0;whiteSpace=wrap;html=1;fontSize=24;" vertex="1" parent="alqseJsik2M_g6vykvSD-57">
          <mxGeometry x="220" width="55" height="60" as="geometry" />
        </mxCell>
        <mxCell id="alqseJsik2M_g6vykvSD-63" value="22" style="rounded=0;whiteSpace=wrap;html=1;fontSize=24;" vertex="1" parent="alqseJsik2M_g6vykvSD-57">
          <mxGeometry x="275" width="55" height="60" as="geometry" />
        </mxCell>
        <mxCell id="alqseJsik2M_g6vykvSD-64" value="" style="endArrow=none;html=1;entryX=0.5;entryY=1;entryDx=0;entryDy=0;exitX=0.5;exitY=0;exitDx=0;exitDy=0;" edge="1" parent="1" source="alqseJsik2M_g6vykvSD-22" target="alqseJsik2M_g6vykvSD-16">
          <mxGeometry width="50" height="50" relative="1" as="geometry">
            <mxPoint x="399" y="455" as="sourcePoint" />
            <mxPoint x="449" y="405" as="targetPoint" />
          </mxGeometry>
        </mxCell>
        <mxCell id="alqseJsik2M_g6vykvSD-65" value="" style="endArrow=none;html=1;entryX=0.5;entryY=1;entryDx=0;entryDy=0;exitX=0.5;exitY=0;exitDx=0;exitDy=0;" edge="1" parent="1" source="alqseJsik2M_g6vykvSD-25" target="alqseJsik2M_g6vykvSD-20">
          <mxGeometry width="50" height="50" relative="1" as="geometry">
            <mxPoint x="614.5" y="176" as="sourcePoint" />
            <mxPoint x="669.5" y="126" as="targetPoint" />
          </mxGeometry>
        </mxCell>
        <mxCell id="alqseJsik2M_g6vykvSD-66" value="" style="endArrow=none;html=1;entryX=0.5;entryY=1;entryDx=0;entryDy=0;exitX=0.5;exitY=0;exitDx=0;exitDy=0;" edge="1" parent="1" source="alqseJsik2M_g6vykvSD-29" target="alqseJsik2M_g6vykvSD-23">
          <mxGeometry width="50" height="50" relative="1" as="geometry">
            <mxPoint x="614.5" y="176" as="sourcePoint" />
            <mxPoint x="669.5" y="126" as="targetPoint" />
          </mxGeometry>
        </mxCell>
        <mxCell id="alqseJsik2M_g6vykvSD-67" value="" style="endArrow=none;html=1;entryX=0;entryY=1;entryDx=0;entryDy=0;exitX=0;exitY=0;exitDx=0;exitDy=0;" edge="1" parent="1" source="alqseJsik2M_g6vykvSD-32" target="alqseJsik2M_g6vykvSD-24">
          <mxGeometry width="50" height="50" relative="1" as="geometry">
            <mxPoint x="624.5" y="186" as="sourcePoint" />
            <mxPoint x="679.5" y="136" as="targetPoint" />
          </mxGeometry>
        </mxCell>
        <mxCell id="alqseJsik2M_g6vykvSD-68" value="" style="endArrow=none;html=1;entryX=0.5;entryY=1;entryDx=0;entryDy=0;exitX=0.5;exitY=0;exitDx=0;exitDy=0;" edge="1" parent="1" source="alqseJsik2M_g6vykvSD-33" target="alqseJsik2M_g6vykvSD-26">
          <mxGeometry width="50" height="50" relative="1" as="geometry">
            <mxPoint x="634.5" y="196" as="sourcePoint" />
            <mxPoint x="689.5" y="146" as="targetPoint" />
          </mxGeometry>
        </mxCell>
        <mxCell id="alqseJsik2M_g6vykvSD-69" value="" style="endArrow=none;html=1;entryX=1;entryY=1;entryDx=0;entryDy=0;exitX=0;exitY=0;exitDx=0;exitDy=0;" edge="1" parent="1" source="alqseJsik2M_g6vykvSD-35" target="alqseJsik2M_g6vykvSD-25">
          <mxGeometry width="50" height="50" relative="1" as="geometry">
            <mxPoint x="644.5" y="206" as="sourcePoint" />
            <mxPoint x="699.5" y="156" as="targetPoint" />
          </mxGeometry>
        </mxCell>
        <mxCell id="alqseJsik2M_g6vykvSD-70" value="" style="endArrow=none;html=1;entryX=0.5;entryY=1;entryDx=0;entryDy=0;" edge="1" parent="1" source="alqseJsik2M_g6vykvSD-39" target="alqseJsik2M_g6vykvSD-29">
          <mxGeometry width="50" height="50" relative="1" as="geometry">
            <mxPoint x="654.5" y="216" as="sourcePoint" />
            <mxPoint x="709.5" y="166" as="targetPoint" />
          </mxGeometry>
        </mxCell>
        <mxCell id="alqseJsik2M_g6vykvSD-71" value="" style="endArrow=none;html=1;entryX=0.5;entryY=1;entryDx=0;entryDy=0;exitX=0.5;exitY=0;exitDx=0;exitDy=0;" edge="1" parent="1" source="alqseJsik2M_g6vykvSD-37" target="alqseJsik2M_g6vykvSD-31">
          <mxGeometry width="50" height="50" relative="1" as="geometry">
            <mxPoint x="664.5" y="226" as="sourcePoint" />
            <mxPoint x="719.5" y="176" as="targetPoint" />
          </mxGeometry>
        </mxCell>
        <mxCell id="alqseJsik2M_g6vykvSD-72" value="" style="endArrow=none;html=1;entryX=0.5;entryY=1;entryDx=0;entryDy=0;exitX=0.5;exitY=0;exitDx=0;exitDy=0;" edge="1" parent="1" source="alqseJsik2M_g6vykvSD-38" target="alqseJsik2M_g6vykvSD-32">
          <mxGeometry width="50" height="50" relative="1" as="geometry">
            <mxPoint x="674.5" y="236" as="sourcePoint" />
            <mxPoint x="729.5" y="186" as="targetPoint" />
          </mxGeometry>
        </mxCell>
        <mxCell id="alqseJsik2M_g6vykvSD-73" value="" style="endArrow=none;html=1;entryX=0.5;entryY=1;entryDx=0;entryDy=0;exitX=0.5;exitY=0;exitDx=0;exitDy=0;" edge="1" parent="1" source="alqseJsik2M_g6vykvSD-41" target="alqseJsik2M_g6vykvSD-33">
          <mxGeometry width="50" height="50" relative="1" as="geometry">
            <mxPoint x="684.5" y="246" as="sourcePoint" />
            <mxPoint x="739.5" y="196" as="targetPoint" />
          </mxGeometry>
        </mxCell>
        <mxCell id="alqseJsik2M_g6vykvSD-74" value="" style="endArrow=none;html=1;entryX=0.5;entryY=1;entryDx=0;entryDy=0;exitX=0.5;exitY=0;exitDx=0;exitDy=0;" edge="1" parent="1" source="alqseJsik2M_g6vykvSD-43" target="alqseJsik2M_g6vykvSD-34">
          <mxGeometry width="50" height="50" relative="1" as="geometry">
            <mxPoint x="694.5" y="256" as="sourcePoint" />
            <mxPoint x="749.5" y="206" as="targetPoint" />
          </mxGeometry>
        </mxCell>
        <mxCell id="alqseJsik2M_g6vykvSD-75" value="" style="endArrow=none;html=1;entryX=0.5;entryY=1;entryDx=0;entryDy=0;exitX=0.5;exitY=0;exitDx=0;exitDy=0;" edge="1" parent="1" source="alqseJsik2M_g6vykvSD-44" target="alqseJsik2M_g6vykvSD-35">
          <mxGeometry width="50" height="50" relative="1" as="geometry">
            <mxPoint x="704.5" y="266" as="sourcePoint" />
            <mxPoint x="759.5" y="216" as="targetPoint" />
          </mxGeometry>
        </mxCell>
        <mxCell id="alqseJsik2M_g6vykvSD-76" value="" style="endArrow=none;html=1;entryX=0.5;entryY=1;entryDx=0;entryDy=0;exitX=0.5;exitY=0;exitDx=0;exitDy=0;" edge="1" parent="1" source="alqseJsik2M_g6vykvSD-45" target="alqseJsik2M_g6vykvSD-39">
          <mxGeometry width="50" height="50" relative="1" as="geometry">
            <mxPoint x="714.5" y="276" as="sourcePoint" />
            <mxPoint x="769.5" y="226" as="targetPoint" />
          </mxGeometry>
        </mxCell>
        <mxCell id="alqseJsik2M_g6vykvSD-77" value="" style="endArrow=none;html=1;entryX=0.5;entryY=1;entryDx=0;entryDy=0;exitX=0.5;exitY=0;exitDx=0;exitDy=0;" edge="1" parent="1" source="alqseJsik2M_g6vykvSD-46" target="alqseJsik2M_g6vykvSD-37">
          <mxGeometry width="50" height="50" relative="1" as="geometry">
            <mxPoint x="724.5" y="286" as="sourcePoint" />
            <mxPoint x="779.5" y="236" as="targetPoint" />
          </mxGeometry>
        </mxCell>
        <mxCell id="alqseJsik2M_g6vykvSD-78" value="" style="endArrow=none;html=1;entryX=0.5;entryY=1;entryDx=0;entryDy=0;exitX=0.5;exitY=0;exitDx=0;exitDy=0;" edge="1" parent="1" source="alqseJsik2M_g6vykvSD-47" target="alqseJsik2M_g6vykvSD-38">
          <mxGeometry width="50" height="50" relative="1" as="geometry">
            <mxPoint x="734.5" y="296" as="sourcePoint" />
            <mxPoint x="789.5" y="246" as="targetPoint" />
          </mxGeometry>
        </mxCell>
        <mxCell id="alqseJsik2M_g6vykvSD-79" value="" style="endArrow=none;html=1;entryX=0.5;entryY=1;entryDx=0;entryDy=0;exitX=0.5;exitY=0;exitDx=0;exitDy=0;" edge="1" parent="1" source="alqseJsik2M_g6vykvSD-48" target="alqseJsik2M_g6vykvSD-41">
          <mxGeometry width="50" height="50" relative="1" as="geometry">
            <mxPoint x="744.5" y="306" as="sourcePoint" />
            <mxPoint x="799.5" y="256" as="targetPoint" />
          </mxGeometry>
        </mxCell>
        <mxCell id="alqseJsik2M_g6vykvSD-80" value="" style="endArrow=none;html=1;entryX=0.5;entryY=1;entryDx=0;entryDy=0;exitX=0.5;exitY=0;exitDx=0;exitDy=0;" edge="1" parent="1" source="alqseJsik2M_g6vykvSD-49" target="alqseJsik2M_g6vykvSD-43">
          <mxGeometry width="50" height="50" relative="1" as="geometry">
            <mxPoint x="754.5" y="316" as="sourcePoint" />
            <mxPoint x="809.5" y="266" as="targetPoint" />
          </mxGeometry>
        </mxCell>
        <mxCell id="alqseJsik2M_g6vykvSD-81" value="" style="endArrow=none;html=1;entryX=0.5;entryY=1;entryDx=0;entryDy=0;exitX=0.5;exitY=0;exitDx=0;exitDy=0;" edge="1" parent="1" source="alqseJsik2M_g6vykvSD-50" target="alqseJsik2M_g6vykvSD-44">
          <mxGeometry width="50" height="50" relative="1" as="geometry">
            <mxPoint x="764.5" y="326" as="sourcePoint" />
            <mxPoint x="819.5" y="276" as="targetPoint" />
          </mxGeometry>
        </mxCell>
        <mxCell id="alqseJsik2M_g6vykvSD-82" value="" style="endArrow=none;html=1;entryX=0;entryY=0;entryDx=0;entryDy=0;exitX=0;exitY=1;exitDx=0;exitDy=0;" edge="1" parent="1" source="alqseJsik2M_g6vykvSD-47" target="alqseJsik2M_g6vykvSD-53">
          <mxGeometry width="50" height="50" relative="1" as="geometry">
            <mxPoint x="774.5" y="336" as="sourcePoint" />
            <mxPoint x="829.5" y="286" as="targetPoint" />
          </mxGeometry>
        </mxCell>
        <mxCell id="alqseJsik2M_g6vykvSD-83" value="" style="endArrow=none;html=1;entryX=0.5;entryY=1;entryDx=0;entryDy=0;exitX=1;exitY=0;exitDx=0;exitDy=0;" edge="1" parent="1" source="alqseJsik2M_g6vykvSD-52" target="alqseJsik2M_g6vykvSD-45">
          <mxGeometry width="50" height="50" relative="1" as="geometry">
            <mxPoint x="784.5" y="346" as="sourcePoint" />
            <mxPoint x="839.5" y="296" as="targetPoint" />
          </mxGeometry>
        </mxCell>
        <mxCell id="alqseJsik2M_g6vykvSD-84" value="" style="endArrow=none;html=1;exitX=0.5;exitY=1;exitDx=0;exitDy=0;entryX=1;entryY=0;entryDx=0;entryDy=0;" edge="1" parent="1" source="alqseJsik2M_g6vykvSD-48" target="alqseJsik2M_g6vykvSD-55">
          <mxGeometry width="50" height="50" relative="1" as="geometry">
            <mxPoint x="794.5" y="356" as="sourcePoint" />
            <mxPoint x="849.5" y="306" as="targetPoint" />
          </mxGeometry>
        </mxCell>
        <mxCell id="alqseJsik2M_g6vykvSD-85" value="" style="endArrow=none;html=1;entryX=0;entryY=1;entryDx=0;entryDy=0;exitX=1;exitY=0;exitDx=0;exitDy=0;" edge="1" parent="1" source="alqseJsik2M_g6vykvSD-54" target="alqseJsik2M_g6vykvSD-50">
          <mxGeometry width="50" height="50" relative="1" as="geometry">
            <mxPoint x="804.5" y="366" as="sourcePoint" />
            <mxPoint x="859.5" y="316" as="targetPoint" />
          </mxGeometry>
        </mxCell>
        <mxCell id="alqseJsik2M_g6vykvSD-86" value="" style="endArrow=none;html=1;entryX=0.5;entryY=1;entryDx=0;entryDy=0;exitX=0.5;exitY=0;exitDx=0;exitDy=0;" edge="1" parent="1" source="alqseJsik2M_g6vykvSD-58" target="alqseJsik2M_g6vykvSD-51">
          <mxGeometry width="50" height="50" relative="1" as="geometry">
            <mxPoint x="814.5" y="376" as="sourcePoint" />
            <mxPoint x="869.5" y="326" as="targetPoint" />
          </mxGeometry>
        </mxCell>
        <mxCell id="alqseJsik2M_g6vykvSD-89" value="" style="endArrow=none;html=1;entryX=0.5;entryY=1;entryDx=0;entryDy=0;exitX=0.5;exitY=0;exitDx=0;exitDy=0;" edge="1" parent="1" source="alqseJsik2M_g6vykvSD-62" target="alqseJsik2M_g6vykvSD-54">
          <mxGeometry width="50" height="50" relative="1" as="geometry">
            <mxPoint x="824.5" y="386" as="sourcePoint" />
            <mxPoint x="879.5" y="336" as="targetPoint" />
          </mxGeometry>
        </mxCell>
        <mxCell id="alqseJsik2M_g6vykvSD-90" value="" style="rounded=0;whiteSpace=wrap;html=1;fillColor=none;dashed=1;strokeWidth=2;strokeColor=#CC0000;" vertex="1" parent="1">
          <mxGeometry x="401" y="22" width="689" height="437" as="geometry" />
        </mxCell>
        <mxCell id="alqseJsik2M_g6vykvSD-91" value="" style="rounded=0;whiteSpace=wrap;html=1;fillColor=none;dashed=1;strokeWidth=2;strokeColor=#660000;" vertex="1" parent="1">
          <mxGeometry x="401" y="578" width="689" height="228" as="geometry" />
        </mxCell>
        <mxCell id="alqseJsik2M_g6vykvSD-93" value="" style="rounded=0;whiteSpace=wrap;html=1;fillColor=none;dashed=1;strokeWidth=2;strokeColor=#990000;" vertex="1" parent="1">
          <mxGeometry x="401" y="471" width="689" height="95" as="geometry" />
        </mxCell>
        <mxCell id="alqseJsik2M_g6vykvSD-95" value="&amp;nbsp;&lt;font color=&quot;#CC0000&quot;&gt;&lt;b&gt;&lt;font style=&quot;font-size: 24px&quot;&gt;Divide&lt;/font&gt;&lt;/b&gt;&lt;/font&gt;" style="text;html=1;strokeColor=none;fillColor=none;align=center;verticalAlign=middle;whiteSpace=wrap;rounded=0;dashed=1;" vertex="1" parent="1">
          <mxGeometry x="401" y="22" width="80" height="45" as="geometry" />
        </mxCell>
        <mxCell id="alqseJsik2M_g6vykvSD-96" value="&amp;nbsp;&lt;font color=&quot;#990000&quot;&gt;&lt;b&gt;&lt;font style=&quot;font-size: 24px&quot;&gt;Conquer&lt;/font&gt;&lt;/b&gt;&lt;/font&gt;" style="text;html=1;strokeColor=none;fillColor=none;align=center;verticalAlign=middle;whiteSpace=wrap;rounded=0;dashed=1;" vertex="1" parent="1">
          <mxGeometry x="401" y="471" width="97" height="45" as="geometry" />
        </mxCell>
        <mxCell id="alqseJsik2M_g6vykvSD-99" value="&amp;nbsp;&lt;font style=&quot;font-size: 24px&quot; color=&quot;#660000&quot;&gt;&lt;b&gt;Merge&lt;/b&gt;&lt;/font&gt;" style="text;html=1;strokeColor=none;fillColor=none;align=center;verticalAlign=middle;whiteSpace=wrap;rounded=0;dashed=1;" vertex="1" parent="1">
          <mxGeometry x="401" y="578" width="74" height="45" as="geometry" />
        </mxCell>
      </root>
    </mxGraphModel>
  </diagram>
</mxfile>
